<?xml version="1.0" encoding="UTF-8" standalone="no"?>
<!-- Generator: Adobe Illustrator 15.1.0, SVG Export Plug-In  -->

<svg
   xmlns:a="http://ns.adobe.com/AdobeSVGViewerExtensions/3.0/"
   xmlns:dc="http://purl.org/dc/elements/1.1/"
   xmlns:cc="http://creativecommons.org/ns#"
   xmlns:rdf="http://www.w3.org/1999/02/22-rdf-syntax-ns#"
   xmlns:svg="http://www.w3.org/2000/svg"
   xmlns="http://www.w3.org/2000/svg"
   xmlns:sodipodi="http://sodipodi.sourceforge.net/DTD/sodipodi-0.dtd"
   xmlns:inkscape="http://www.inkscape.org/namespaces/inkscape"
   version="1.1"
   x="0px"
   y="0px"
   width="24px"
   height="24px"
   viewBox="0 0 24 24"
   style="overflow:visible;enable-background:new 0 0 24 24;"
   xml:space="preserve"
   preserveAspectRatio="xMinYMid meet"
   id="svg3336"
   inkscape:version="0.91 r13725"
   sodipodi:docname="icon.svg"><metadata
     id="metadata3425"><rdf:RDF><cc:Work
         rdf:about=""><dc:format>image/svg+xml</dc:format><dc:type
           rdf:resource="http://purl.org/dc/dcmitype/StillImage" /><dc:title></dc:title></cc:Work></rdf:RDF></metadata><sodipodi:namedview
     pagecolor="#ffffff"
     bordercolor="#666666"
     borderopacity="1"
     objecttolerance="10"
     gridtolerance="10"
     guidetolerance="10"
     inkscape:pageopacity="0"
     inkscape:pageshadow="2"
     inkscape:window-width="1680"
     inkscape:window-height="988"
     id="namedview3423"
     showgrid="false"
     inkscape:zoom="34.125"
     inkscape:cx="10.413643"
     inkscape:cy="11.761776"
     inkscape:window-x="1672"
     inkscape:window-y="-8"
     inkscape:window-maximized="1"
     inkscape:current-layer="svg3336" /><defs
     id="defs3338" /><linearGradient
     id="SVGID_1_"
     gradientUnits="userSpaceOnUse"
     x1="11.9854"
     y1="0"
     x2="11.9854"
     y2="24.0161"><stop
       offset="0"
       style="stop-color:#F0A829"
       id="stop3341" /><stop
       offset="1"
       style="stop-color:#C7671A"
       id="stop3343" /><a:midPointStop
       offset="0"
       style="stop-color:#F0A829" /><a:midPointStop
       offset="0.5"
       style="stop-color:#F0A829" /><a:midPointStop
       offset="1"
       style="stop-color:#C7671A" /></linearGradient><path
     style="fill:url(#SVGID_1_);"
     d="M14.4,0L0.6,13.9c-0.8,0.8-0.8,2.1,0,2.8l6.7,6.7c0.8,0.8,2,0.8,2.8,0L24,9.6V0H14.4z"
     id="path3345" /><linearGradient
     id="SVGID_2_"
     gradientUnits="userSpaceOnUse"
     x1="11.9854"
     y1="1"
     x2="11.9854"
     y2="23.0161"><stop
       offset="0"
       style="stop-color:#FFEBA8"
       id="stop3348" /><stop
       offset="1"
       style="stop-color:#F8BE27"
       id="stop3350" /><a:midPointStop
       offset="0"
       style="stop-color:#FFEBA8" /><a:midPointStop
       offset="0.5"
       style="stop-color:#FFEBA8" /><a:midPointStop
       offset="1"
       style="stop-color:#F8BE27" /></linearGradient><path
     style="fill:url(#SVGID_2_);"
     d="M8.7,23c-0.3,0-0.5-0.1-0.7-0.3L1.3,16C1.1,15.8,1,15.6,1,15.3c0-0.3,0.1-0.5,0.3-0.7L14.9,1  H23v8.2L9.4,22.7C9.2,22.9,9,23,8.7,23C8.7,23,8.7,23,8.7,23z"
     id="path3352" /><linearGradient
     id="SVGID_3_"
     gradientUnits="userSpaceOnUse"
     x1="11.9844"
     y1="2"
     x2="11.9844"
     y2="22.0142"><stop
       offset="0"
       style="stop-color:#FFC30F"
       id="stop3355" /><stop
       offset="1"
       style="stop-color:#F5AE0D"
       id="stop3357" /><a:midPointStop
       offset="0"
       style="stop-color:#FFC30F" /><a:midPointStop
       offset="0.5"
       style="stop-color:#FFC30F" /><a:midPointStop
       offset="1"
       style="stop-color:#F5AE0D" /></linearGradient><polygon
     style="fill:url(#SVGID_3_);"
     points="2,15.3 15.3,2 22,2 22,8.8 8.7,22 "
     id="polygon3359" /><linearGradient
     id="SVGID_4_"
     gradientUnits="userSpaceOnUse"
     x1="8.7197"
     y1="9.9688"
     x2="8.7197"
     y2="20.6313"><stop
       offset="0"
       style="stop-color:#76A1F0"
       id="stop3362" /><stop
       offset="1"
       style="stop-color:#6B90D5"
       id="stop3364" /><a:midPointStop
       offset="0"
       style="stop-color:#76A1F0" /><a:midPointStop
       offset="0.5"
       style="stop-color:#76A1F0" /><a:midPointStop
       offset="1"
       style="stop-color:#6B90D5" /></linearGradient><polygon
     style="fill:url(#SVGID_4_);"
     points="3.4,15.3 8.7,10 14.1,15.3 8.7,20.6 "
     id="polygon3366" /><linearGradient
     id="SVGID_5_"
     gradientUnits="userSpaceOnUse"
     x1="11.1465"
     y1="22.0312"
     x2="11.1465"
     y2="23.8711"
     gradientTransform="matrix(0.7071 -0.7071 0.7071 0.7071 -14.0909 8.2514)"><stop
       offset="0"
       style="stop-color:#57C3F6"
       id="stop3369" /><stop
       offset="0.1648"
       style="stop-color:#83D3F8"
       id="stop3371" /><stop
       offset="0.3554"
       style="stop-color:#AFE3FB"
       id="stop3373" /><stop
       offset="0.5396"
       style="stop-color:#D2EFFD"
       id="stop3375" /><stop
       offset="0.7128"
       style="stop-color:#EBF8FE"
       id="stop3377" /><stop
       offset="0.8709"
       style="stop-color:#FAFDFF"
       id="stop3379" /><stop
       offset="1"
       style="stop-color:#FFFFFF"
       id="stop3381" /><a:midPointStop
       offset="0"
       style="stop-color:#57C3F6" /><a:midPointStop
       offset="0.3354"
       style="stop-color:#57C3F6" /><a:midPointStop
       offset="1"
       style="stop-color:#FFFFFF" /></linearGradient><polygon
     style="fill:url(#SVGID_5_);"
     points="7.4,17.9 8.7,19.2 12.6,15.3 11.3,14 "
     id="polygon3383" /><path
     style="fill:#F2EFD5;"
     d="M12.6,15.3L12.3,15c-0.3,0.2-0.8,0.5-1.4,1.1c-1.1,0.9-1,0.5-2,0.9c-0.4,0.2-0.9,0.6-1.4,1l1.2,1.2  L12.6,15.3z"
     id="path3385" /><linearGradient
     id="SVGID_6_"
     gradientUnits="userSpaceOnUse"
     x1="8.3882"
     y1="23.1035"
     x2="13.9038"
     y2="23.1035"
     gradientTransform="matrix(0.7071 -0.7071 0.7071 0.7071 -14.0909 8.2514)"><stop
       offset="0"
       style="stop-color:#F8E5B5"
       id="stop3388" /><stop
       offset="1"
       style="stop-color:#F9E5B6"
       id="stop3390" /><a:midPointStop
       offset="0"
       style="stop-color:#F8E5B5" /><a:midPointStop
       offset="0.4451"
       style="stop-color:#F8E5B5" /><a:midPointStop
       offset="1"
       style="stop-color:#F9E5B6" /></linearGradient><path
     style="fill:url(#SVGID_6_);"
     d="M12.6,15.3l-0.2-0.2c-0.4,0.2-0.6,0.6-1.3,1.2C10,17.2,10,16.6,9,17c-0.4,0.2-0.9,0.6-1.3,1.1  l1.1,1.1L12.6,15.3z"
     id="path3392" /><linearGradient
     id="SVGID_7_"
     gradientUnits="userSpaceOnUse"
     x1="12.1709"
     y1="17.6572"
     x2="10.1204"
     y2="22.7323"
     gradientTransform="matrix(0.7071 -0.7071 0.7071 0.7071 -14.0909 8.2514)"><stop
       offset="0"
       style="stop-color:#57C3F6"
       id="stop3395" /><stop
       offset="4.801393e-03"
       style="stop-color:#59C4F6"
       id="stop3397" /><stop
       offset="0.1237"
       style="stop-color:#85D3F8"
       id="stop3399" /><stop
       offset="0.2474"
       style="stop-color:#AAE1FA"
       id="stop3401" /><stop
       offset="0.376"
       style="stop-color:#C9ECFC"
       id="stop3403" /><stop
       offset="0.51"
       style="stop-color:#E1F4FD"
       id="stop3405" /><stop
       offset="0.6519"
       style="stop-color:#F2FAFE"
       id="stop3407" /><stop
       offset="0.807"
       style="stop-color:#FCFEFF"
       id="stop3409" /><stop
       offset="1"
       style="stop-color:#FFFFFF"
       id="stop3411" /><a:midPointStop
       offset="0"
       style="stop-color:#57C3F6" /><a:midPointStop
       offset="0.25"
       style="stop-color:#57C3F6" /><a:midPointStop
       offset="1"
       style="stop-color:#FFFFFF" /></linearGradient><polygon
     style="fill:url(#SVGID_7_);"
     points="4.8,15.3 7.4,17.9 11.3,14 8.7,11.4 "
     id="polygon3413" /><path
     style="fill:#FFFFFF;"
     d="M9,11.6C8.7,11.8,8.7,12,8.7,12s-0.4-0.1-0.6,0.4c-0.1,0.4,0.3,0.5,0.3,0.5s0,0-0.1,0.1  c0,0.1,0.1,0.1,0.1,0.1s-0.2,0.1-0.1,0.4c0.1,0.3,0.3,0.3,0.3,0.3s-0.1,0.5,0.4,0.6c0.4,0.1,0.5-0.3,0.5-0.3s0.3,0,0.6-0.2  c0.3-0.2,0.4-0.5,0.4-0.5s0.1,0,0.2,0L9,11.6z"
     id="path3415" /><path
     style="fill:#FFFFFF;"
     d="M7.9,14.5c0,0-0.1,0-0.2,0.1c0,0.1,0.1,0.2,0.1,0.2s0,0,0,0c0,0,0,0,0,0s-0.1,0,0,0.1  C7.8,15,7.9,15,7.9,15s0,0.1,0.1,0.2c0.1,0,0.1-0.1,0.1-0.1s0.1,0,0.2,0c0.1-0.1,0.1-0.1,0.1-0.1s0.1,0,0.1-0.1c0-0.1,0-0.2,0-0.2  s0.2,0,0.1-0.2c-0.1-0.1-0.2,0-0.2,0s-0.1-0.1-0.1-0.1c-0.1,0-0.1,0.1-0.1,0.1s0,0,0,0c0,0-0.1,0-0.1,0S8,14.3,7.9,14.3  C7.8,14.4,7.9,14.5,7.9,14.5z"
     id="path3417" /><path
     style="fill:#FFFFFF;"
     d="M19.6,8.4l-5.5,5.5l-0.7-0.7l5.5-5.5L19.6,8.4z M17.5,6.3L12,11.8l0.7,0.7L18.2,7L17.5,6.3z   M16.1,4.9l-5.5,5.5l0.7,0.7l5.5-5.5L16.1,4.9z"
     id="path3419" /><ellipse
     style="fill:#FFFFFF;"
     cx="19.7"
     cy="4.3"
     rx="1.3"
     ry="1.3"
     id="ellipse3421" /><text
     xml:space="preserve"
     style="font-style:normal;font-weight:normal;font-size:19.81777573px;line-height:125%;font-family:sans-serif;letter-spacing:0px;word-spacing:0px;overflow:visible;fill:#000000;fill-opacity:1;stroke:none;stroke-width:1px;stroke-linecap:butt;stroke-linejoin:miter;stroke-opacity:1"
     x="11.091776"
     y="15.830982"
     id="text3427-7"
     sodipodi:linespacing="125%"><tspan
       sodipodi:role="line"
       id="tspan3429-8"
       x="11.091776"
       y="15.830982">ยง</tspan></text>
<text
     xml:space="preserve"
     style="font-style:normal;font-weight:normal;font-size:19.81777573px;line-height:125%;font-family:sans-serif;letter-spacing:0px;word-spacing:0px;overflow:visible;fill:#000000;fill-opacity:1;stroke:none;stroke-width:1px;stroke-linecap:butt;stroke-linejoin:miter;stroke-opacity:1"
     x="0.86036175"
     y="19.02512"
     id="text3427-7-9"
     sodipodi:linespacing="125%"><tspan
       sodipodi:role="line"
       id="tspan3429-8-0"
       x="0.86036175"
       y="19.02512">ยง</tspan></text>
</svg>